<?xml version="1.0" standalone="no"?>
<!DOCTYPE svg PUBLIC "-//W3C//DTD SVG 20010904//EN"
 "http://www.w3.org/TR/2001/REC-SVG-20010904/DTD/svg10.dtd">
<svg version="1.0" xmlns="http://www.w3.org/2000/svg"
 width="483.000000pt" height="483.000000pt" viewBox="0 0 483.000000 483.000000"
 preserveAspectRatio="xMidYMid meet">
<metadata>
Created by potrace 1.14, written by Peter Selinger 2001-2017
</metadata>
<g transform="translate(0.000000,483.000000) scale(0.100000,-0.100000)"
fill="#000000" stroke="none">
<path d="M2368 3805 c-2 -1 -43 -5 -91 -9 -108 -8 -246 -43 -369 -92 -184 -73
-321 -165 -464 -310 l-101 -102 -164 -2 c-210 -1 -483 -10 -488 -16 -2 -2 63
-4 145 -5 82 0 233 -2 335 -4 l186 -4 99 97 c266 263 597 401 964 400 377 0
731 -152 987 -422 l72 -75 198 4 c109 2 249 4 312 4 63 1 112 4 108 7 -3 4
-139 9 -303 11 l-296 5 -101 102 c-101 101 -211 185 -317 243 -121 65 -312
131 -425 148 -22 3 -53 8 -70 11 -34 6 -212 14 -217 9z"/>
<path d="M2170 3684 c-183 -37 -336 -102 -486 -205 -74 -51 -229 -196 -269
-251 l-20 -27 -380 -7 c-209 -3 -407 -8 -440 -9 -33 -2 -125 -3 -204 -4 -79
-1 -142 -3 -140 -6 8 -7 473 -19 1042 -26 l148 -2 32 39 c60 75 180 184 263
239 222 148 450 217 709 217 206 0 359 -37 550 -132 166 -83 283 -174 401
-314 l41 -48 199 2 c425 4 996 19 1002 25 3 3 -37 5 -89 6 -52 0 -155 2 -229
4 -74 2 -297 6 -495 10 l-359 7 -35 41 c-204 243 -469 395 -791 453 -19 3
-102 7 -185 9 -126 2 -169 -1 -265 -21z"/>
<path d="M2295 3617 c-44 -4 -107 -14 -140 -23 -33 -8 -68 -16 -77 -19 -51
-12 -213 -84 -278 -123 -139 -83 -321 -246 -305 -273 5 -7 4 -10 -2 -6 -11 7
-40 -20 -31 -28 3 -3 439 -4 969 -3 l964 3 -101 104 c-68 69 -106 101 -114 96
-8 -5 -11 -4 -7 2 13 20 -229 174 -297 189 -17 3 -36 10 -42 15 -7 5 -55 20
-107 34 -138 35 -292 46 -432 32z m72 -14 c-15 -2 -25 -8 -23 -12 3 -4 -13 -7
-34 -6 -22 1 -49 -4 -61 -10 -21 -12 -20 -12 11 -19 18 -3 31 -9 28 -12 -4 -3
-2 -19 2 -35 6 -20 5 -29 -3 -29 -6 0 -2 -6 8 -14 18 -13 18 -16 -20 -57 -39
-43 -40 -44 -110 -45 -74 -1 -112 -8 -154 -31 -23 -11 -28 -11 -38 4 -7 9 -25
30 -39 46 l-27 31 33 28 c38 31 35 33 -22 16 -27 -8 -42 -8 -49 -1 -8 8 -1 15
25 24 20 7 36 17 36 21 0 4 3 7 8 6 14 -3 62 14 62 23 0 5 7 6 15 3 8 -4 15
-1 15 5 0 6 7 8 15 5 8 -4 15 -1 15 4 0 6 9 9 20 7 11 -2 20 0 20 5 0 5 9 7
20 5 11 -2 20 1 20 7 0 6 3 8 7 5 3 -4 13 -1 21 6 12 9 11 4 -3 -22 -24 -47
-55 -141 -47 -141 4 0 15 27 25 61 20 69 56 110 90 102 17 -4 19 -2 8 5 -11 8
-5 11 25 14 64 5 131 6 101 1z m372 -38 c23 -8 44 -14 47 -14 3 0 8 -2 11 -4
3 -3 -1 -4 -9 -3 -7 2 -31 6 -53 11 -22 4 -47 11 -55 16 -26 15 12 11 59 -6z
m151 -89 c0 -2 -9 -2 -20 1 -11 3 -20 9 -20 15 0 5 9 4 20 -2 11 -6 20 -12 20
-14z m35 -24 c-3 -3 -11 0 -18 7 -9 10 -8 11 6 5 10 -3 15 -9 12 -12z m-1065
-11 c0 -4 -12 -13 -27 -20 -17 -8 -23 -15 -16 -22 11 -11 43 -2 43 12 0 22 28
5 76 -47 l52 -56 34 15 c52 24 78 30 78 17 0 -7 6 -6 15 3 10 10 27 13 57 10
24 -3 49 -5 55 -6 9 0 10 -4 2 -13 -15 -18 -2 -34 27 -34 13 0 24 -5 24 -10 0
-7 7 -7 20 0 15 8 24 8 33 -2 17 -16 37 -74 37 -104 0 -21 -5 -23 -52 -26 -85
-5 -208 3 -208 13 0 5 6 9 14 9 8 0 18 5 22 12 4 7 3 8 -4 4 -6 -4 -20 -3 -29
2 -10 5 -27 6 -38 1 -11 -4 -16 -8 -12 -8 5 -1 2 -8 -7 -16 -9 -10 -34 -15
-67 -15 l-52 0 22 23 c27 30 21 46 -29 75 -22 12 -40 29 -40 36 0 15 -58 28
-66 14 -3 -5 -9 -6 -14 -3 -4 3 -29 -4 -55 -15 -26 -11 -65 -21 -88 -21 l-42
-2 40 -6 40 -6 -47 -28 c-26 -15 -53 -36 -61 -47 -9 -13 -22 -18 -43 -15 -16
2 -32 4 -36 4 -17 2 -6 31 19 50 35 28 40 20 14 -21 l-22 -33 23 29 c13 16 34
41 48 56 14 14 52 55 85 90 32 36 53 56 45 46 -15 -19 -14 -19 13 -2 27 18 39
34 15 20 -7 -4 -10 -4 -6 0 3 4 8 6 10 5 5 -5 68 35 68 43 0 4 7 5 15 2 8 -4
15 -9 15 -13z m1038 -4 c30 7 72 -12 99 -46 l21 -27 -56 -2 c-41 -2 -61 -8
-74 -22 -10 -11 -22 -20 -26 -20 -10 1 -80 103 -78 115 0 5 7 8 15 7 7 -2 10
1 7 6 -3 5 11 4 32 -4 20 -7 47 -10 60 -7z m-571 -6 c-6 -23 40 -49 92 -53 29
-2 30 -4 15 -15 -21 -15 -11 -17 16 -3 13 7 21 6 30 -5 6 -7 24 -16 39 -20 29
-6 62 -37 74 -68 5 -14 0 -17 -30 -17 -20 0 -34 -2 -31 -5 9 -9 228 -11 228
-2 0 4 -16 7 -35 7 -19 0 -35 5 -35 10 0 6 3 10 8 10 4 0 15 14 24 31 14 23
15 35 8 50 -8 13 -7 19 0 19 7 0 9 8 5 21 -5 15 -4 19 4 15 6 -4 11 0 11 11 1
29 56 -41 91 -114 16 -34 29 -64 29 -66 0 -1 -17 -2 -37 0 -36 2 -30 -1 25
-13 21 -4 22 -6 7 -34 -14 -27 -21 -30 -63 -30 -105 -1 -300 -1 -353 -1 l-56
1 -5 44 c-3 24 -15 58 -27 75 l-22 30 38 20 c21 11 34 20 30 21 -5 0 -17 -5
-28 -11 -15 -7 -24 -7 -34 1 -8 7 -19 9 -25 5 -14 -9 -70 4 -70 16 0 10 69 89
77 89 3 0 3 -9 0 -19z m-680 -116 c-33 -30 -62 -55 -65 -55 -8 1 110 110 118
110 3 0 -21 -25 -53 -55z m1507 36 c-8 -8 -34 -10 -38 -2 -3 4 6 7 19 7 14 0
22 -2 19 -5z m-15 -34 c14 4 14 3 1 -6 -12 -8 -12 -11 3 -17 29 -11 20 -34
-13 -34 -16 0 -30 5 -30 10 0 6 7 10 15 10 20 0 19 9 -2 34 -10 12 -11 16 -4
9 7 -6 21 -9 30 -6z m51 7 c0 -8 -19 -13 -24 -6 -3 5 1 9 9 9 8 0 15 -2 15 -3z
m-111 -78 c12 -7 11 -11 -4 -22 -18 -13 -18 -14 2 -14 12 0 25 -5 28 -10 4 -6
14 -10 23 -9 20 2 52 -10 52 -20 0 -12 -129 -11 -136 1 -5 8 5 9 35 4 28 -4
40 -3 36 4 -3 6 -11 7 -17 4 -7 -5 -8 -2 -3 6 5 8 4 11 -3 6 -6 -3 -30 0 -54
9 -24 8 -54 15 -68 15 -23 1 -23 2 -7 11 11 6 30 9 43 6 30 -5 31 6 2 26 l-23
16 28 0 c15 1 27 7 28 14 0 6 6 1 12 -13 6 -14 18 -29 26 -34z m120 41 c8 -10
7 -14 -4 -14 -8 0 -16 6 -19 14 -3 7 -2 13 3 13 5 0 14 -6 20 -13z m-299 -1
c0 -2 -7 -7 -16 -10 -8 -3 -12 -2 -9 4 6 10 25 14 25 6z m362 -40 c-2 -10 1
-15 7 -12 5 4 13 1 17 -5 4 -8 3 -9 -4 -5 -7 4 -12 3 -12 -2 0 -6 -7 -12 -14
-15 -10 -4 -13 -1 -9 9 3 8 -2 23 -11 33 -16 17 -15 18 6 17 16 -1 22 -7 20
-20z m-352 0 c0 -3 -4 -8 -10 -11 -5 -3 -10 -1 -10 4 0 6 5 11 10 11 6 0 10
-2 10 -4z m325 -16 c3 -6 -1 -7 -9 -4 -18 7 -21 14 -7 14 6 0 13 -4 16 -10z
m-1433 -20 c17 -16 19 -22 8 -35 -19 -23 -43 -19 -35 5 4 14 1 22 -10 26 -13
6 -14 8 -3 15 17 11 16 12 40 -11z m1144 -2 c3 -5 0 -16 -7 -24 -10 -13 -14
-12 -30 2 -11 10 -19 20 -19 24 0 11 49 9 56 -2z m-1311 -38 c-3 -5 -14 -10
-23 -10 -15 0 -15 2 -2 10 20 13 33 13 25 0z m282 -6 c-3 -3 -12 -4 -19 -1 -8
3 -5 6 6 6 11 1 17 -2 13 -5z"/>
<path d="M2111 3394 c0 -11 3 -14 6 -6 3 7 2 16 -1 19 -3 4 -6 -2 -5 -13z"/>
<path d="M2190 3308 c-15 -21 -17 -28 -6 -19 16 13 41 51 33 51 -2 0 -14 -15
-27 -32z"/>
<path d="M2101 3304 c0 -11 3 -14 6 -6 3 7 2 16 -1 19 -3 4 -6 -2 -5 -13z"/>
<path d="M1939 3290 c-31 -25 -12 -26 21 0 14 11 20 20 14 20 -7 0 -22 -9 -35
-20z"/>
<path d="M2010 3270 c12 -16 24 -30 26 -30 3 0 -4 14 -16 30 -12 17 -24 30
-26 30 -3 0 4 -13 16 -30z"/>
<path d="M2149 3253 c-13 -16 -12 -17 4 -4 9 7 17 15 17 17 0 8 -8 3 -21 -13z"/>
<path d="M2500 3240 c-9 -6 -10 -10 -3 -10 6 0 15 5 18 10 8 12 4 12 -15 0z"/>
<path d="M2775 3240 c3 -5 8 -10 11 -10 2 0 4 5 4 10 0 6 -5 10 -11 10 -5 0
-7 -4 -4 -10z"/>
<path d="M4110 3279 c0 -5 11 -9 25 -9 14 0 25 2 25 4 0 2 -11 6 -25 8 -14 3
-25 1 -25 -3z"/>
<path d="M1917 3034 c-1 -1 -37 -4 -80 -7 -135 -11 -222 -66 -253 -161 -24
-72 -24 -400 0 -466 42 -114 138 -160 339 -161 212 -1 308 45 351 169 21 58
20 387 0 455 -20 63 -76 120 -144 142 -41 14 -204 36 -213 29z m130 -219 c19
-21 23 -38 24 -96 2 -221 1 -235 -23 -264 -44 -49 -221 -44 -250 8 -8 14 -13
72 -14 164 -1 208 11 224 166 218 66 -3 77 -6 97 -30z"/>
<path d="M384 2995 c10 -56 17 -90 53 -250 19 -88 37 -169 39 -179 2 -11 15
-73 30 -139 14 -65 28 -131 30 -145 3 -14 7 -28 9 -32 2 -3 70 -6 152 -6 l148
1 43 180 c23 99 47 202 52 230 6 27 14 53 18 57 4 4 27 -83 51 -195 24 -111
47 -218 52 -237 l9 -36 150 0 150 0 10 35 c10 39 26 111 33 151 5 27 6 28 36
160 11 47 22 97 25 112 2 14 18 88 36 163 17 75 29 142 27 148 -2 8 -38 12
-104 12 l-100 1 -59 -298 c-32 -163 -60 -295 -62 -293 -2 2 -17 59 -32 127
-62 271 -81 352 -85 357 -1 3 -6 22 -9 42 -10 67 -7 65 -123 64 -96 0 -107 -2
-114 -20 -6 -16 -67 -264 -84 -340 -18 -85 -58 -235 -61 -232 -2 2 -10 39 -18
83 -15 85 -86 459 -91 484 -2 8 -4 17 -4 20 -1 3 -49 5 -107 5 l-106 0 6 -30z"/>
<path d="M2382 2635 l3 -390 100 0 100 0 3 103 3 102 94 0 c84 0 97 -2 121
-24 26 -22 28 -29 28 -100 0 -42 2 -77 5 -77 30 -7 201 -2 204 6 2 5 3 51 2
101 -1 68 -7 99 -21 122 -18 32 -66 62 -101 63 -10 0 5 10 32 23 78 36 90 60
92 196 3 129 -12 179 -62 218 -49 39 -98 45 -358 46 l-247 2 2 -391z m432 189
c17 -16 18 -25 18 -107 0 -72 -12 -80 -124 -82 -51 -1 -99 0 -105 3 -9 3 -13
33 -13 103 l0 99 104 0 c82 0 108 -3 120 -16z"/>
<path d="M3154 3015 c-2 -5 -3 -181 -2 -390 l3 -380 265 0 265 0 2 92 2 92
-122 0 c-67 -1 -140 0 -163 0 l-41 1 1 285 c1 157 -1 291 -4 298 -6 15 -200
18 -206 2z"/>
<path d="M3755 3020 c-2 -3 -4 -179 -4 -391 l-1 -385 263 1 263 1 57 27 c107
53 129 114 129 353 1 255 -29 328 -150 375 -52 20 -77 22 -305 23 -137 1 -250
-1 -252 -4z m458 -194 c28 -21 35 -62 33 -201 -3 -194 -12 -202 -242 -196
l-41 1 0 205 0 205 116 0 c82 -1 121 -5 134 -14z"/>
<path d="M230 2098 c-51 -27 -51 -140 0 -165 14 -6 45 -13 70 -14 63 -3 83
-15 70 -39 -15 -28 -75 -27 -92 0 -9 14 -24 20 -50 20 -35 0 -38 -2 -38 -27 1
-51 29 -74 97 -80 127 -12 173 15 173 97 0 60 -23 89 -72 92 -18 0 -37 2 -43
3 -5 2 -22 3 -37 4 -20 1 -28 6 -28 20 0 34 72 44 89 13 8 -16 22 -18 74 -13
16 2 6 59 -14 77 -27 24 -160 32 -199 12z"/>
<path d="M637 2103 c-10 -16 -6 -238 4 -264 13 -34 40 -45 115 -48 79 -3 131
18 140 55 5 21 9 219 5 255 -2 12 -81 8 -82 -4 0 -7 -1 -58 -1 -114 1 -57 -3
-105 -7 -107 -19 -12 -61 -13 -76 -2 -14 10 -17 31 -17 122 l0 110 -38 2 c-21
2 -41 -1 -43 -5z"/>
<path d="M1135 2101 c-45 -20 -57 -46 -60 -133 -4 -149 20 -178 145 -178 91 0
129 26 130 90 0 37 1 37 -75 31 -6 -1 -15 -11 -20 -23 -8 -19 -17 -22 -44 -20
-19 1 -37 5 -40 7 -8 8 -11 130 -3 142 4 6 20 14 36 17 21 4 33 -1 51 -19 16
-18 33 -25 59 -25 34 0 36 2 36 34 0 19 -9 44 -19 57 -17 21 -29 24 -98 26
-43 2 -87 -1 -98 -6z"/>
<path d="M1564 2096 c-44 -20 -57 -59 -53 -165 4 -78 7 -94 27 -113 20 -21 32
-23 112 -23 102 0 126 13 136 77 6 33 4 36 -24 40 -35 5 -76 -8 -67 -21 14
-24 -66 -34 -88 -12 -4 4 -8 37 -8 72 -1 80 9 89 83 80 4 -1 10 -10 13 -21 5
-17 14 -20 51 -18 48 1 53 10 33 66 -7 20 -21 34 -41 41 -42 15 -136 13 -174
-3z"/>
<path d="M1959 2092 c0 -9 -1 -80 -2 -157 l-1 -140 117 -2 117 -1 0 34 c0 37
-4 38 -94 35 -40 -1 -56 10 -56 42 0 15 10 17 70 17 l70 0 0 30 c0 32 3 31
-85 34 -46 1 -50 3 -50 26 0 23 3 25 55 27 30 1 62 2 71 2 11 1 15 11 15 34
l-1 32 -112 2 c-101 2 -113 1 -114 -15z"/>
<path d="M2412 2103 c-32 -6 -55 -56 -49 -106 6 -54 35 -77 98 -78 79 -2 95
-10 79 -40 -15 -27 -80 -27 -87 1 -4 16 -14 20 -49 20 -48 0 -52 -7 -34 -56
16 -42 38 -52 115 -52 114 0 147 23 147 103 0 70 -34 91 -159 94 -27 1 -32 35
-7 45 28 11 63 6 71 -9 5 -7 25 -16 46 -18 36 -4 37 -3 37 29 0 52 -37 74
-119 73 -36 -1 -76 -4 -89 -6z"/>
<path d="M2832 2098 c-30 -15 -48 -77 -36 -120 12 -39 41 -56 107 -59 61 -3
87 -20 68 -43 -16 -19 -74 -21 -90 -3 -6 8 -8 17 -4 20 3 4 -12 7 -35 7 -49 0
-57 -10 -42 -55 14 -42 53 -57 139 -54 87 3 118 24 123 84 7 89 -21 110 -150
114 -27 1 -41 29 -21 42 24 15 68 10 78 -9 7 -13 19 -17 48 -14 37 4 39 6 35
32 -7 49 -35 65 -121 67 -42 2 -86 -2 -99 -9z"/>
<path d="M3209 2094 c-5 -63 -8 -60 53 -63 26 -1 26 -1 26 -83 -1 -166 -4
-155 45 -154 l42 1 0 118 c0 73 3 117 10 118 5 1 24 0 41 -1 30 -1 31 0 30 37
l-1 38 -122 2 c-100 1 -123 -1 -124 -13z"/>
<path d="M3590 2097 c0 -6 21 -49 47 -96 37 -67 49 -99 53 -146 l5 -60 40 0
40 0 2 53 c2 41 11 70 39 120 21 37 45 81 55 99 10 17 15 34 12 37 -4 3 -25 6
-48 6 -41 0 -42 -1 -70 -61 l-30 -61 -27 61 -27 62 -46 -2 c-25 -2 -45 -7 -45
-12z"/>
<path d="M4040 1950 l0 -160 108 2 107 3 0 35 c0 38 2 37 -80 39 l-50 1 0 117
0 118 -42 3 -43 3 0 -161z"/>
<path d="M4420 1949 l0 -159 116 1 115 1 -3 36 -3 36 -69 0 c-67 1 -69 2 -72
28 -3 27 -2 27 64 30 65 3 67 4 70 31 4 29 10 27 -93 31 -35 1 -39 4 -39 26 0
23 3 25 49 26 101 3 95 1 95 38 l0 35 -115 0 -115 -1 0 -159z"/>
<path d="M1217 1674 c-1 -1 -177 -5 -392 -9 -495 -9 -544 -11 -551 -18 -3 -3
63 -6 148 -7 84 -1 200 -4 258 -6 58 -1 242 -5 410 -8 l305 -5 35 -43 c107
-132 264 -255 425 -334 297 -145 610 -171 935 -78 228 66 461 221 620 412 l36
43 289 5 c160 3 360 7 445 9 85 2 203 4 263 4 119 1 149 16 35 17 -40 0 -248
4 -463 9 -214 4 -436 8 -493 9 l-103 1 -56 -65 c-100 -116 -250 -233 -389
-303 -70 -36 -236 -92 -319 -108 -77 -15 -357 -19 -440 -6 -52 8 -57 10 -192
52 -205 64 -400 196 -555 375 l-48 54 -101 1 c-55 0 -101 -1 -102 -1z"/>
<path d="M1456 1672 c-8 -8 193 -202 255 -245 319 -225 700 -285 1079 -172
198 59 415 208 578 396 l22 25 -965 0 c-531 0 -967 -2 -969 -4z m152 -56 c42
-24 104 -53 138 -65 55 -20 63 -27 83 -69 30 -61 89 -138 121 -158 25 -16 25
-16 -2 10 -44 43 -126 171 -116 182 3 2 36 -3 74 -10 96 -19 184 -28 184 -18
0 5 -6 9 -12 9 -30 0 -163 15 -168 18 -4 2 -22 7 -41 10 -45 8 -63 27 -63 67
0 69 -9 66 218 65 113 0 209 -3 214 -6 10 -7 63 -143 58 -149 -2 -2 -47 -4
-100 -5 -53 -1 -96 -6 -96 -11 0 -5 47 -6 104 -4 l104 6 32 -69 c18 -38 47
-89 66 -113 19 -25 34 -47 34 -50 0 -2 -12 -7 -27 -9 -16 -2 -2 -3 30 -1 59 2
94 14 44 14 -20 0 -35 11 -62 48 -39 53 -98 170 -91 181 3 3 19 8 38 9 50 4
226 48 287 72 30 11 55 19 56 18 1 -2 8 -13 14 -25 6 -13 18 -23 26 -23 8 0
15 -9 15 -20 0 -12 10 -25 23 -31 54 -24 67 -35 55 -47 -8 -8 -9 -12 -1 -12
19 0 24 -31 7 -47 -14 -14 -14 -17 0 -31 13 -14 13 -18 -5 -43 -12 -18 -36
-33 -62 -40 -23 -7 -46 -14 -52 -16 -5 -2 -53 -11 -107 -21 -80 -15 -99 -16
-114 -5 -23 17 -35 17 -28 -1 5 -13 -12 -14 -108 -11 -62 3 -122 6 -133 9 -11
2 -42 8 -68 12 -27 4 -54 12 -60 18 -7 7 -21 12 -32 12 -11 0 -38 8 -60 18
-22 10 -49 19 -60 22 -35 7 -147 66 -220 115 -83 56 -181 143 -225 199 -30 38
-30 40 -10 40 11 0 55 -20 98 -44z m123 22 c30 -14 50 -30 53 -44 3 -12 9 -29
12 -38 6 -14 2 -14 -32 -1 -68 27 -193 90 -194 98 0 17 114 6 161 -15z m954
-1 c21 -30 19 -36 -12 -48 -47 -18 -196 -60 -233 -65 -19 -3 -54 -9 -77 -14
l-42 -7 -26 66 c-14 37 -25 71 -25 77 0 7 65 11 200 11 193 0 201 0 215 -20z
m597 -8 c-18 -16 -32 -32 -32 -36 0 -4 18 10 40 32 47 46 64 40 26 -9 -67 -88
-321 -279 -338 -254 -16 25 -7 37 55 74 84 50 207 137 207 147 0 4 -23 -10
-50 -32 -74 -59 -263 -171 -227 -135 3 4 2 15 -3 25 -7 11 -6 19 1 21 6 2 12
38 14 83 1 44 3 87 4 96 1 14 21 16 168 16 l166 0 -31 -28z m-322 -269 c0 -10
-9 -24 -20 -30 -19 -10 -19 -10 -2 20 20 35 22 36 22 10z"/>
<path d="M2780 1330 c-25 -10 -38 -19 -30 -19 17 1 101 37 85 38 -5 0 -30 -9
-55 -19z"/>
<path d="M2665 1295 c-22 -8 -31 -13 -20 -13 11 0 36 6 55 13 45 17 18 17 -35
0z"/>
<path d="M2758 1293 c6 -2 18 -2 25 0 6 3 1 5 -13 5 -14 0 -19 -2 -12 -5z"/>
<path d="M2555 1270 c-27 -7 -27 -8 -5 -8 14 0 36 4 50 8 20 6 21 8 5 8 -11 0
-33 -4 -50 -8z"/>
<path d="M2138 1253 c6 -2 18 -2 25 0 6 3 1 5 -13 5 -14 0 -19 -2 -12 -5z"/>
<path d="M2218 1243 c6 -2 18 -2 25 0 6 3 1 5 -13 5 -14 0 -19 -2 -12 -5z"/>
<path d="M2293 1243 c15 -2 39 -2 55 0 15 2 2 4 -28 4 -30 0 -43 -2 -27 -4z"/>
<path d="M760 1549 c-114 -6 -103 -7 308 -16 l274 -5 101 -102 c183 -183 386
-301 627 -365 397 -104 816 -26 1159 216 36 26 112 93 168 149 l102 102 327 6
c180 3 330 8 332 11 3 3 -26 5 -64 6 -38 0 -191 3 -341 5 l-272 5 -83 -83
c-135 -135 -280 -236 -440 -304 -66 -28 -187 -69 -195 -66 -2 0 -17 -4 -35 -9
-87 -25 -200 -36 -337 -33 -137 3 -164 7 -296 38 -252 61 -472 187 -657 378
l-78 79 -252 -3 c-139 -2 -296 -6 -348 -9z"/>
</g>
</svg>
