<svg xmlns="http://www.w3.org/2000/svg" viewBox="0 0 78.93 78.93"><defs><style>.cls-1{fill:#00aeef;}</style></defs><title>Datový zdroj 17</title><g id="Vrstva_2" data-name="Vrstva 2"><g id="Layer_3" data-name="Layer 3"><path class="cls-1" d="M39.46,78.93A39.47,39.47,0,1,1,78.93,39.46,39.51,39.51,0,0,1,39.46,78.93Zm0-74A34.55,34.55,0,1,0,74,39.46,34.58,34.58,0,0,0,39.46,4.92Z"/><path class="cls-1" d="M50.93,28.81h0V19.05a2.68,2.68,0,0,0-2.68-2.68H40.82a2.68,2.68,0,0,0-2.68,2.68v2h-3c-7.18,0-13,8.75-13,19.51s5.85,19.52,13,19.52h3v2.42a2.68,2.68,0,0,0,2.68,2.68h7.43a2.68,2.68,0,0,0,2.68-2.68V52.38h0Zm-2.69-9.76v5.6a10.73,10.73,0,0,0-6.43-3.5v-.07h-1v-2ZM40.7,57.42c-5.7,0-10.33-7.55-10.33-16.83S35,23.77,40.7,23.77c2.83,0,5.56,2,7.54,5.39V52C46.26,55.46,43.53,57.42,40.7,57.42ZM24.84,40.59c0-8.63,4-15.75,9.16-16.7-3.78,3.42-6.33,9.62-6.33,16.7S30.22,53.88,34,57.3C28.85,56.35,24.84,49.23,24.84,40.59Zm16,21.94V60.11h1V60a10.77,10.77,0,0,0,6.44-3.51v6Z"/></g></g></svg>