<svg xmlns="http://www.w3.org/2000/svg" viewBox="0 0 78.93 78.93"><defs><style>.cls-1{fill:#00aeef;}</style></defs><title>Datový zdroj 24</title><g id="Vrstva_2" data-name="Vrstva 2"><g id="Layer_3" data-name="Layer 3"><path class="cls-1" d="M39.46,78.93A39.47,39.47,0,1,1,78.93,39.46,39.5,39.5,0,0,1,39.46,78.93Zm0-74A34.55,34.55,0,1,0,74,39.46,34.59,34.59,0,0,0,39.46,4.92Z"/><path class="cls-1" d="M62.81,31.29a16.37,16.37,0,0,0-9.36-7.61l0-.09L34.85,19.81c-9.22-2.45-17.78,2.56-20.38,12a18.78,18.78,0,0,0,.88,12.58l-.06.26.21,0c.2.41.39.83.62,1.23a16.38,16.38,0,0,0,8.64,7.37l0,.07,1.39.38,1.21.33h0l15.73,4.28.17.06.28.06,1.73.47,0-.12a15.86,15.86,0,0,0,2.18.15c7.61,0,14.75-5.41,17-13.53A18.69,18.69,0,0,0,62.81,31.29Zm-2.34,1.33a15.69,15.69,0,0,1,2,8.66L35.15,34.73a15.14,15.14,0,0,1,13.51-9.11,13.69,13.69,0,0,1,2.38.22l.52.11.62.15A13.7,13.7,0,0,1,60.47,32.62Zm-43.41-.14c2.12-7.67,9-11.85,16.41-10.22v0l.83.17,1.25.34,0-.08,7,1.41A18.49,18.49,0,0,0,31.67,36.46a18.92,18.92,0,0,0-.22,9.24l-14-3.34A16.23,16.23,0,0,1,17.06,32.48Zm2,13L32.41,48.7a18.25,18.25,0,0,0,.91,1.89,17.65,17.65,0,0,0,2,2.84l-8.61-2.35A13.5,13.5,0,0,1,19.07,45.51ZM44.13,55.82l-.36-.1a13.68,13.68,0,0,1-8.1-6.47,15.06,15.06,0,0,1-1.18-2.66l0-.15-.1,0a16.28,16.28,0,0,1-.18-9.13L62,44c-.05.24-.09.49-.16.73h0C59.62,52.82,51.69,57.77,44.13,55.82Z"/></g></g></svg>