<svg xmlns="http://www.w3.org/2000/svg" viewBox="0 0 78.93 78.93"><defs><style>.cls-1{fill:#00aeef;}</style></defs><title>Datový zdroj 18</title><g id="Vrstva_2" data-name="Vrstva 2"><g id="Layer_3" data-name="Layer 3"><path class="cls-1" d="M39.46,78.93A39.47,39.47,0,1,1,78.93,39.46,39.5,39.5,0,0,1,39.46,78.93Zm0-74A34.55,34.55,0,1,0,74,39.46,34.59,34.59,0,0,0,39.46,4.92Z"/><path class="cls-1" d="M59.42,22.47a1.34,1.34,0,0,0-.53-1.07,1.39,1.39,0,0,0-.67-.26L39,16.64a1.43,1.43,0,0,0-.65,0L20.68,21.31a1.31,1.31,0,0,0-.68.25,1.35,1.35,0,0,0-.55,1.08l-.14,36.14A1.32,1.32,0,0,0,20.16,60l17.18,6.82a1.41,1.41,0,0,0,.49.09H38l.09,0a1.36,1.36,0,0,0,.43-.14l20.08-6.72a1.35,1.35,0,0,0,.9-1.27ZM38.73,19.34l13.86,3.25L38,26.62l-12.3-3.85ZM36.49,63.62,22,57.87l.14-33.39L36.49,29Zm2.69.08V29.09l17.55-4.84,0,33.58Z"/></g></g></svg>